<svg xmlns="http://www.w3.org/2000/svg" width="28" height="28" viewBox="0 0 28 28">
  <g id="cancel_13" transform="translate(4149 9956)">
    <path id="Path_87" data-name="Path 87" d="M37.675,40.375a2.691,2.691,0,0,1-1.909-.791l-22.6-22.6a2.7,2.7,0,0,1,3.818-3.818l22.6,22.6a2.7,2.7,0,0,1-1.909,4.609Z" transform="translate(-4161.375 -9968.375)" fill="#333"/>
    <path id="Path_88" data-name="Path 88" d="M15.075,40.375a2.7,2.7,0,0,1-1.909-4.609l22.6-22.6a2.7,2.7,0,0,1,3.818,3.818l-22.6,22.6A2.691,2.691,0,0,1,15.075,40.375Z" transform="translate(-4161.375 -9968.375)" fill="#333"/>
  </g>
</svg>
