<svg xmlns="http://www.w3.org/2000/svg" width="23.735" height="28.005" viewBox="0 0 23.735 28.005">
  <g id="Group_4655" data-name="Group 4655" transform="translate(2782 -5972)">
    <path id="Path_4023" data-name="Path 4023" d="M47.294,28.3a2.919,2.919,0,0,1-3-2.831V8.561h-.475A1.388,1.388,0,0,1,42.4,7.215,1.388,1.388,0,0,1,43.824,5.87H64.709a1.388,1.388,0,0,1,1.424,1.345,1.388,1.388,0,0,1-1.424,1.346h-.475V25.471a2.92,2.92,0,0,1-3,2.831Zm0-19.741a.144.144,0,0,0-.148.141V25.471a.143.143,0,0,0,.147.14H61.239a.144.144,0,0,0,.147-.14V8.7a.145.145,0,0,0-.148-.141Z" transform="translate(-2824.399 5971.703)" fill="#333"/>
    <path id="Path_4024" data-name="Path 4024" d="M51.823,11A1.426,1.426,0,0,0,50.4,12.424v9.494a1.424,1.424,0,1,0,2.848,0V12.424A1.426,1.426,0,0,0,51.823,11" transform="translate(-2824.804 5971.443)" fill="#333"/>
    <path id="Path_4025" data-name="Path 4025" d="M57.823,11A1.426,1.426,0,0,0,56.4,12.424v9.494a1.424,1.424,0,1,0,2.848,0V12.424A1.426,1.426,0,0,0,57.823,11" transform="translate(-2825.108 5971.443)" fill="#333"/>
    <path id="Path_4026" data-name="Path 4026" d="M51.823,2.848h5.7a1.424,1.424,0,0,0,0-2.848h-5.7a1.424,1.424,0,0,0,0,2.848" transform="translate(-2824.804 5972)" fill="#333"/>
  </g>
</svg>
