<svg xmlns="http://www.w3.org/2000/svg" width="28" height="28" viewBox="0 0 28 28">
  <g id="Group_4650" data-name="Group 4650" transform="translate(2900 -5966.179)">
    <path fill="#333333" id="Path_4001" data-name="Path 4001" d="M398.493,3.287a2.715,2.715,0,0,1-.362,1.114,5.527,5.527,0,0,1-.932,1.034c-.091.09-1.116,1.088-1.118,1.086l-4.092-4.1c.012-.013.063-.075.119-.131.45-.452.9-.9,1.35-1.354A2.986,2.986,0,0,1,396.7.21a2.951,2.951,0,0,1,1.457,1.321,3.13,3.13,0,0,1,.335,1.756" transform="translate(-3270.509 5966.179)"/>
    <path fill="#333333" id="Path_4002" data-name="Path 4002" d="M11.667,108.414c-2.772,0-5.543-.011-8.314.007a3.115,3.115,0,0,1-2.1-.783A3.365,3.365,0,0,1,0,104.976Q0,96.788,0,88.6a3.492,3.492,0,0,1,3.5-3.5c3.09-.013,6.181-.007,9.272,0a1.17,1.17,0,0,1,.132,2.336c-.1.006-.2,0-.3,0H3.578a1.152,1.152,0,0,0-1.192.851,2.048,2.048,0,0,0-.044.515q0,4.97,0,9.941,0,3.026,0,6.052a1.914,1.914,0,0,0,.045.488,1.133,1.133,0,0,0,1.06.84c.1.005.2,0,.3,0q7.932,0,15.863,0a2.313,2.313,0,0,0,.516-.035A1.159,1.159,0,0,0,21,105.027c.006-.1,0-.2,0-.3q0-4.478,0-8.955a1.864,1.864,0,0,1,.046-.46,1.157,1.157,0,0,1,2.26.093,2.026,2.026,0,0,1,.03.354c0,3.04.012,6.08,0,9.119a3.445,3.445,0,0,1-2.089,3.288,2.546,2.546,0,0,1-1.135.252c-2.817-.007-5.634,0-8.451,0" transform="translate(-2900 5885.758)"/>
    <path fill="#333333" id="Path_4003" data-name="Path 4003" d="M191.834,68.442l4.114,4.12c-.029.032-.08.093-.136.149q-4.467,4.473-8.931,8.949a1.139,1.139,0,0,1-.615.323c-1.286.254-2.571.514-3.857.768a.592.592,0,0,1-.753-.737q.4-2.012.811-4.02a.839.839,0,0,1,.219-.4q4.538-4.557,9.086-9.1a.627.627,0,0,1,.061-.051" transform="translate(-3071.686 5901.493)"/>
  </g>
</svg>
