<svg xmlns="http://www.w3.org/2000/svg" xmlns:xlink="http://www.w3.org/1999/xlink" width="80" height="80" viewBox="0 0 80 80">
  <defs>
    <clipPath id="clip-Notification">
      <rect width="80" height="80"/>
    </clipPath>
  </defs>
  <g id="Notification" clip-path="url(#clip-Notification)">
    <g id="Group_539" data-name="Group 539" transform="translate(6 3)">
      <path id="Path_537" data-name="Path 537" d="M3789.615,380.142a22.078,22.078,0,0,0,19.8,31.163c.3,1.6.5,3.235.916,4.815a20.707,20.707,0,0,0,6.617,10.469,5.162,5.162,0,0,1,1.812,5.377,5.34,5.34,0,0,1-4.029,4.023,7.856,7.856,0,0,1-2.175.2q-24.9.016-49.792,0c-4.3,0-7-2.8-6.13-6.547a6.9,6.9,0,0,1,2.021-3.255,20.506,20.506,0,0,0,6.823-12.434,67.547,67.547,0,0,0,.315-8.619c.024-3.711.009-7.4,1.319-10.967a22.045,22.045,0,0,1,20.464-14.4C3788.24,379.967,3788.906,380.079,3789.615,380.142Z" transform="translate(-3756.468 -373.748)" fill="#25beaf"/>
      <path id="Path_538" data-name="Path 538" d="M3884.391,374.269A15.6,15.6,0,1,1,3899.921,390,15.574,15.574,0,0,1,3884.391,374.269Z" transform="translate(-3846.92 -358.73)" fill="#25beaf"/>
      <path id="Path_539" data-name="Path 539" d="M3846.808,583.059c-.528,4.682-5.435,8.989-10.495,9.258a11.651,11.651,0,0,1-12.208-9.258Z" transform="translate(-3804.293 -517.35)" fill="#25beaf"/>
    </g>
  </g>
</svg>
