<?xml version="1.0" encoding="utf-8"?>
<!-- Generator: Adobe Illustrator 19.0.0, SVG Export Plug-In . SVG Version: 6.00 Build 0)  -->
<svg xmlns:xlink="http://www.w3.org/1999/xlink" version="1.1" id="Layer_1" xmlns="http://www.w3.org/2000/svg" x="0px"
	 y="0px"
	 viewBox="0 0 121 33.4" style="enable-background:new 0 0 121 33.4;" xml:space="preserve">
<style type="text/css">
	.st0{fill:#63BCB1;}
	.st1{fill:none;}
	.st2{fill:#FFFFFF;}
	.st3{fill:#69C3BA;}
	.st4{opacity:0.3;}
</style>
	<g id="XMLID_2_">
	<g id="XMLID_25_">
		<g id="XMLID_26_">
			<g id="XMLID_27_">
				<g id="XMLID_31_">
					<path id="XMLID_41_" class="st0" d="M32.3,30.8c0.7-1,1.2-2.3,1.2-3.6V6.3c0-3.5-2.8-6.3-6.3-6.3H6.3C2.8,0,0,2.8,0,6.3v20.9
						c0,1.3,0.4,2.4,1,3.4l15.7-7.3L32.3,30.8z"/>
					<path id="XMLID_40_" class="st1" d="M17,9.6v-1c-2.2,0.1-4,1.9-4,4.1c0,2.3,1.8,4.1,4.1,4.1c2.3,0,4.1-1.8,4.1-4.1
						c0-2.2-1.8-4.1-4-4.1v1H17z"/>
					<path id="XMLID_39_"
						  d="M32.3,30.8l-15.5-7.5L1,30.6c1.1,1.7,3.1,2.9,5.3,2.9h20.9C29.3,33.4,31.1,32.4,32.3,30.8z"/>
					<polygon id="XMLID_33_" class="st2"
							 points="17,27 16.5,27 16.6,24.7 16.8,24.7 					"/>
					<polygon id="XMLID_32_" class="st2"
							 points="17.2,33.4 16.3,33.4 16.5,29.2 17,29.2 					"/>
					<g id="XMLID_1_">
						<path id="XMLID_45_" class="st3" d="M27.1,0H6.3C2.8,0,0,2.8,0,6.3v13.1C5.5,19.8,11.1,20,16.7,20s11.2-0.2,16.7-0.6V6.3
							C33.4,2.8,30.6,0,27.1,0z"/>
					</g>
					<g id="XMLID_34_">
						<path id="XMLID_38_" d="M16.8,1.4v3c4.3,0,7.8,3.5,7.8,7.8h3C27.7,6.3,22.8,1.4,16.8,1.4z"/>
						<circle id="XMLID_37_" cx="16.7" cy="12.5" r="2.5"/>
						<path id="XMLID_36_" d="M16.9,5.3v3c2.2,0.1,3.9,1.8,4,3.9h3C23.6,8.4,20.7,5.4,16.9,5.3z"/>
						<path id="XMLID_35_" class="st2" d="M16.7,16.6c-2.3,0-4.1-1.8-4.1-4.1c0-2.2,1.8-4.1,4-4.1v-3c-3.7,0.1-6.8,3-6.9,7.1
							c-0.1,5.1,7,10.8,7,10.8s7.2-5.6,7.1-10.6h-3C20.8,14.8,19,16.6,16.7,16.6z"/>
					</g>
				</g>
				<g id="XMLID_28_" class="st4">
					<defs>
						<path id="XMLID_29_" class="st4" d="M27.1,0H6.3C2.8,0,0,2.8,0,6.3v20.9c0,1.3,0.4,2.4,1,3.4c1.1,1.7,3.1,2.9,5.3,2.9h10h0.9
							h10c2.1,0,4-1,5.1-2.6c0.7-1,1.2-2.3,1.2-3.6V6.3C33.4,2.8,30.6,0,27.1,0z"/>
					</defs>
					<clipPath id="XMLID_42_">
						<use xlink:href="#XMLID_29_" style="overflow:visible;"/>
					</clipPath>
				</g>
			</g>
		</g>
	</g>
		<g id="XMLID_3_">
		<path id="XMLID_22_" d="M42.9,18.6v5.9h-2.4V9.7h4.2c1.9,0,3.3,0.4,4.2,1.1c0.9,0.7,1.4,1.8,1.4,3.2c0,1.8-1,3.1-2.9,3.9l4.2,6.5
			h-2.7l-3.5-5.9H42.9z M42.9,16.6h1.7c1.1,0,1.9-0.2,2.4-0.6c0.5-0.4,0.8-1,0.8-1.9c0-0.8-0.3-1.4-0.8-1.8
			c-0.5-0.4-1.4-0.5-2.5-0.5h-1.6V16.6z"/>
			<path id="XMLID_19_" d="M61.7,18.9c0,1.8-0.5,3.2-1.4,4.3c-0.9,1-2.2,1.5-3.9,1.5c-1,0-2-0.2-2.8-0.7c-0.8-0.5-1.4-1.1-1.8-2
			c-0.4-0.9-0.6-1.9-0.6-3.1c0-1.8,0.5-3.2,1.4-4.2c0.9-1,2.2-1.5,3.9-1.5c1.6,0,2.9,0.5,3.8,1.6C61.3,15.7,61.7,17.1,61.7,18.9z
			 M53.6,18.9c0,2.6,1,3.9,2.9,3.9c1.9,0,2.8-1.3,2.8-3.9c0-2.5-0.9-3.8-2.8-3.8c-1,0-1.7,0.3-2.2,1C53.8,16.7,53.6,17.6,53.6,18.9z
			"/>
			<path id="XMLID_16_" d="M69.9,24.4l-0.5-1.6h-0.1c-0.5,0.7-1.1,1.1-1.6,1.4c-0.5,0.2-1.2,0.4-2.1,0.4c-1.1,0-2-0.3-2.6-0.9
			c-0.6-0.6-0.9-1.4-0.9-2.5c0-1.1,0.4-2,1.3-2.6c0.9-0.6,2.2-0.9,3.9-1l1.9-0.1V17c0-0.7-0.2-1.2-0.5-1.6c-0.3-0.4-0.8-0.5-1.5-0.5
			c-0.6,0-1.1,0.1-1.6,0.3c-0.5,0.2-1,0.4-1.5,0.6l-0.8-1.7c0.6-0.3,1.3-0.6,2-0.7c0.7-0.2,1.4-0.2,2-0.2c1.4,0,2.5,0.3,3.2,0.9
			c0.7,0.6,1.1,1.6,1.1,2.9v7.5H69.9z M66.4,22.8c0.9,0,1.6-0.2,2.1-0.7c0.5-0.5,0.8-1.2,0.8-2v-1l-1.4,0.1c-1.1,0-1.9,0.2-2.4,0.6
			c-0.5,0.3-0.8,0.8-0.8,1.5c0,0.5,0.1,0.9,0.4,1.2C65.3,22.7,65.8,22.8,66.4,22.8z"/>
			<path id="XMLID_13_" d="M77.1,24.6c-1.4,0-2.5-0.5-3.3-1.5c-0.8-1-1.2-2.4-1.2-4.2c0-1.8,0.4-3.3,1.2-4.3c0.8-1,1.9-1.5,3.3-1.5
			c1.5,0,2.6,0.5,3.3,1.6h0.1c-0.1-0.8-0.2-1.4-0.2-1.9V8.8h2.4v15.7H81L80.5,23h-0.1C79.7,24.1,78.6,24.6,77.1,24.6z M77.7,22.7
			c1,0,1.7-0.3,2.1-0.8c0.4-0.5,0.7-1.4,0.7-2.7v-0.3c0-1.4-0.2-2.4-0.7-3c-0.5-0.6-1.2-0.9-2.1-0.9c-0.8,0-1.5,0.3-1.9,1
			c-0.5,0.7-0.7,1.6-0.7,2.9c0,1.2,0.2,2.2,0.7,2.8C76.2,22.4,76.9,22.7,77.7,22.7z"/>
			<path id="XMLID_11_" d="M91.2,11.6c-1.4,0-2.5,0.5-3.3,1.5c-0.8,1-1.2,2.3-1.2,4.1c0,1.8,0.4,3.2,1.1,4.1c0.8,0.9,1.9,1.4,3.3,1.4
			c0.6,0,1.2-0.1,1.8-0.2c0.6-0.1,1.2-0.3,1.8-0.5V24c-1.2,0.4-2.5,0.7-3.9,0.7c-2.2,0-3.8-0.7-5-2c-1.2-1.3-1.7-3.2-1.7-5.6
			c0-1.5,0.3-2.9,0.8-4c0.6-1.1,1.4-2,2.4-2.6s2.3-0.9,3.7-0.9c1.5,0,2.9,0.3,4.2,0.9l-0.9,2c-0.5-0.2-1-0.4-1.6-0.6
			C92.4,11.7,91.8,11.6,91.2,11.6z"/>
			<path id="XMLID_8_" d="M103.2,24.4l-0.5-1.6h-0.1c-0.5,0.7-1.1,1.1-1.6,1.4c-0.5,0.2-1.2,0.4-2.1,0.4c-1.1,0-2-0.3-2.6-0.9
			c-0.6-0.6-0.9-1.4-0.9-2.5c0-1.1,0.4-2,1.3-2.6c0.9-0.6,2.2-0.9,3.9-1l1.9-0.1V17c0-0.7-0.2-1.2-0.5-1.6c-0.3-0.4-0.8-0.5-1.5-0.5
			c-0.6,0-1.1,0.1-1.6,0.3c-0.5,0.2-1,0.4-1.5,0.6l-0.8-1.7c0.6-0.3,1.3-0.6,2-0.7c0.7-0.2,1.4-0.2,2-0.2c1.4,0,2.5,0.3,3.2,0.9
			c0.7,0.6,1.1,1.6,1.1,2.9v7.5H103.2z M99.6,22.8c0.9,0,1.6-0.2,2.1-0.7c0.5-0.5,0.8-1.2,0.8-2v-1l-1.4,0.1c-1.1,0-1.9,0.2-2.4,0.6
			c-0.5,0.3-0.8,0.8-0.8,1.5c0,0.5,0.1,0.9,0.4,1.2C98.6,22.7,99,22.8,99.6,22.8z"/>
			<path id="XMLID_6_" d="M114.1,21.3c0,1.1-0.4,1.9-1.2,2.5c-0.8,0.6-1.9,0.9-3.4,0.9c-1.5,0-2.7-0.2-3.6-0.7v-2
			c1.3,0.6,2.5,0.9,3.7,0.9c1.5,0,2.2-0.4,2.2-1.3c0-0.3-0.1-0.5-0.2-0.7c-0.2-0.2-0.4-0.4-0.8-0.6s-0.9-0.4-1.5-0.7
			c-1.3-0.5-2.2-1-2.6-1.5c-0.5-0.5-0.7-1.1-0.7-1.9c0-1,0.4-1.7,1.2-2.2c0.8-0.5,1.8-0.8,3.1-0.8c1.3,0,2.6,0.3,3.7,0.8l-0.8,1.8
			c-1.2-0.5-2.2-0.7-3-0.7c-1.2,0-1.9,0.4-1.9,1.1c0,0.3,0.2,0.6,0.5,0.9c0.3,0.2,1,0.6,2.1,1c0.9,0.4,1.6,0.7,2,1
			c0.4,0.3,0.7,0.6,0.9,1C114,20.3,114.1,20.7,114.1,21.3z"/>
			<path id="XMLID_4_" d="M119.3,22.7c0.6,0,1.2-0.1,1.7-0.3v1.8c-0.3,0.1-0.6,0.2-1,0.3c-0.4,0.1-0.8,0.1-1.3,0.1
			c-2.2,0-3.4-1.2-3.4-3.5v-6h-1.5v-1l1.6-0.9l0.8-2.4h1.5v2.5h3.2v1.8h-3.2v6c0,0.6,0.1,1,0.4,1.3
			C118.4,22.6,118.8,22.7,119.3,22.7z"/>
	</g>
</g>
</svg>
